<svg xmlns="http://www.w3.org/2000/svg" width="507.58" height="551.114" viewBox="0 0 507.58 551.114">
  <g id="Polygon_1" data-name="Polygon 1" transform="translate(0 496.273) rotate(-83)" fill="#fff">
    <path d="M 351.4638671875 445 L 148.5361328125 445 C 135.8332061767578 445 124.1096649169922 438.1018676757813 117.9405975341797 426.9975280761719 L 15.16286659240723 241.9975280761719 C 12.28139972686768 236.8109283447266 10.75839996337891 230.9332733154297 10.75839996337891 225 C 10.75839996337891 219.0667266845703 12.28139972686768 213.1890716552734 15.16286659240723 208.0024719238281 L 117.9406661987305 23.00246620178223 C 124.109733581543 11.89813327789307 135.8332672119141 5 148.5361938476563 5 L 351.4638671875 5 C 364.1668090820313 5 375.8903198242188 11.89813327789307 382.059326171875 23.00246620178223 L 484.8371276855469 208.0024719238281 C 487.7185974121094 213.1890716552734 489.2416687011719 219.0667266845703 489.2416687011719 225 C 489.2416687011719 230.9332733154297 487.7185974121094 236.8109283447266 484.8371276855469 241.9975280761719 L 382.059326171875 426.9975280761719 C 375.8903198242188 438.1018676757813 364.1668090820313 445 351.4638671875 445 Z" stroke="none"/>
    <path d="M 148.5361328125 10 C 137.6479187011719 10 127.5992126464844 15.9127197265625 122.3114318847656 25.43072509765625 L 19.53363037109375 210.4307098388672 C 14.46536254882813 219.5534973144531 14.46536254882813 230.4464263916016 19.53363037109375 239.5692901611328 L 122.3113708496094 424.5692138671875 C 127.5992126464844 434.0872802734375 137.6479187011719 440 148.5361328125 440 L 351.4638671875 440 C 362.35205078125 440 372.4007873535156 434.0872802734375 377.6885681152344 424.5692749023438 L 480.4663696289063 239.5692901611328 C 485.5345764160156 230.4464263916016 485.5345764160156 219.5535736083984 480.4663696289063 210.4307098388672 L 377.6885681152344 25.43072509765625 C 372.4007873535156 15.9127197265625 362.35205078125 10 351.4638671875 10 L 148.5361328125 10 M 148.5361328125 0 L 351.4638671875 0 C 365.990478515625 0 379.3753662109375 7.875640869140625 386.4301452636719 20.57427978515625 L 489.2079162597656 205.5742797851563 C 495.9195861816406 217.6552124023438 495.9195861816406 232.3447875976563 489.2079162597656 244.4257202148438 L 386.4301452636719 429.4257202148438 C 379.3753662109375 442.1242980957031 365.990478515625 450 351.4638671875 450 L 148.5361328125 450 C 134.0094299316406 450 120.6246337890625 442.1242980957031 113.5697937011719 429.4257202148438 L 10.79208374023438 244.4257202148438 C 4.080413818359375 232.3447875976563 4.080413818359375 217.6551361083984 10.79208374023438 205.5742797851563 L 113.5698547363281 20.57427978515625 C 120.6246337890625 7.875640869140625 134.0094299316406 0 148.5361328125 0 Z" stroke="none" fill="#fcae03"/>
  </g>
</svg>
